<svg width="322" height="484" viewBox="0 0 322 484" fill="none" xmlns="http://www.w3.org/2000/svg">
<path d="M42.7331 438.535C47.7331 462.535 76.2331 433.035 76.2331 433.035L110.233 429.035C110.233 429.035 131.733 429.535 145.733 440.535C159.733 451.535 169.233 437.035 169.233 437.035C185.006 442.292 204.33 442.271 221.066 440.587C245.182 438.161 264.512 419.547 267.826 395.537C286.523 260.095 183.733 193.535 183.733 193.535L153.733 112.535C153.733 112.535 163.233 89.0349 166.233 68.0349C169.233 47.0349 147.233 27.0348 120.233 7.03484C108.421 -1.71516 94.8854 -1.08625 83.3959 2.38982C70.5069 6.28928 59.2637 14.3081 50.9562 24.906C44.0736 33.6859 32.2688 46.1207 19.293 48.2748C14.803 49.0148 10.373 50.7949 6.23301 54.0348C1.95298 57.3848 0.0630322 62.9748 0.00303217 69.9249C-0.316978 100.285 24.753 136.835 46.733 142.535C73.733 149.535 59.233 216.035 59.233 216.035C15.233 278.035 46.233 347.035 46.233 347.035L38.233 403.035C38.233 403.035 37.7331 414.535 42.7331 438.535Z" fill="#3F3D56"/>
<path d="M189.733 309.535L178.733 446.535C178.733 446.535 193.733 484.535 142.733 482.535C91.7331 480.535 121.733 402.535 121.733 402.535L137.733 300.535" fill="#3F3D56"/>
<path d="M146.528 483.611C145.281 483.611 144.005 483.586 142.694 483.534C131.404 483.091 123.09 478.933 117.983 471.175C103.38 448.994 119.622 405.269 120.761 402.276L136.745 300.38C136.831 299.834 137.338 299.466 137.888 299.547C138.433 299.632 138.806 300.144 138.721 300.69L122.721 402.69C122.71 402.759 122.692 402.828 122.667 402.894C122.492 403.346 105.415 448.45 119.655 470.078C124.387 477.264 132.165 481.12 142.772 481.536C159.424 482.185 170.625 478.632 176.07 470.967C183.194 460.939 177.857 447.041 177.802 446.901C177.747 446.759 177.724 446.606 177.736 446.455L188.736 309.455C188.78 308.905 189.253 308.504 189.813 308.538C190.364 308.583 190.774 309.064 190.73 309.615L179.748 446.39C180.474 448.351 185.03 461.795 177.709 472.114C172.292 479.75 161.81 483.611 146.528 483.611Z" fill="#2F2E41"/>
<path d="M98.7331 337.535C98.7331 337.535 101.733 464.535 38.7331 461.535C-24.2669 458.535 32.7331 418.535 32.7331 418.535L38.2331 403.035" fill="#3F3D56"/>
<path d="M40.8951 462.587C40.1637 462.587 39.4283 462.569 38.6852 462.534C20.6969 461.677 10.5333 457.647 8.47717 450.555C4.77307 437.776 28.9166 420.034 31.8961 417.902L37.2906 402.701C37.4752 402.179 38.0465 401.908 38.567 402.092C39.0875 402.277 39.36 402.848 39.1754 403.369L33.6754 418.869C33.6061 419.065 33.4772 419.234 33.3073 419.353C33.0436 419.539 6.92981 438.038 10.3986 449.999C12.191 456.179 21.7399 459.724 38.7809 460.536C50.1295 461.082 60.0778 457.265 68.3317 449.207C99.2838 418.991 97.7526 338.369 97.733 337.558C97.7203 337.006 98.1569 336.548 98.7096 336.535C99.2321 336.536 99.7194 336.96 99.733 337.511C99.8121 340.857 101.305 419.809 69.7301 450.636C61.6022 458.572 51.9098 462.587 40.8951 462.587Z" fill="#2F2E41"/>
<path d="M0.00305176 69.9249C7.18304 70.7849 18.423 70.7448 27.733 64.5349C37.703 57.8848 27.353 51.6848 19.293 48.2748C14.803 49.0148 10.3731 50.7949 6.23303 54.0349C1.953 57.3848 0.0630518 62.9749 0.00305176 69.9249Z" fill="#2F2E41"/>
<path d="M116.031 51.9439C116.031 51.9439 98.5817 7.12748 123.574 6.50037C148.566 5.87326 168.306 44.7103 168.306 44.7103C168.306 44.7103 231.034 159.053 145.093 152.887C59.151 146.721 100.219 101.076 100.219 101.076C100.219 101.076 119.821 76.9767 116.031 51.9439Z" fill="#2F2E41"/>
<path d="M211.772 386.851C222.839 391.774 234.403 396.799 246.507 396.318C258.611 395.837 271.349 388.042 273.235 376.077C274.209 369.9 272.278 363.273 274.643 357.484C277.825 349.695 288.089 346.692 296.068 349.361C304.047 352.03 309.909 358.913 314.112 366.201C321.975 379.838 325.126 397.736 316.695 411.029C309.386 422.553 295.524 427.76 282.63 432.226C265.455 438.176 246.279 444.08 229.636 436.773C212.898 429.423 203.78 408.188 209.978 390.991" fill="#3F3D56"/>
<path d="M174.847 170.921C174.847 170.921 196.847 181.921 185.847 193.921C174.847 205.921 106.847 239.921 81.8473 234.921C56.8473 229.921 50.8473 214.921 50.8473 210.921C50.8473 206.921 52.7331 158.535 60.7331 160.535C68.7331 162.535 118.847 207.921 174.847 170.921Z" fill="#6C63FF"/>
</svg>
